<svg width="110" height="88" viewBox="0 0 110 88" fill="none" xmlns="http://www.w3.org/2000/svg">
<path d="M1.5 1.5H13.955V48.1231V51.6119H56.4153V1.5H67.7381V48.1231H95.4788V1.5H108.5V86.5H95.4788V54.7836H67.7381V86.5H56.4153V51.6119H13.955V67.3116V86.5H1.5V1.5Z" fill="#EAE7E7"/>
<path d="M47.3571 1.5H34.9021V42.7313H47.3571V1.5Z" fill="#EAE7E7"/>
<path d="M47.3571 60.4925H34.9021V86.5H47.3571V60.4925Z" fill="#EAE7E7"/>
<path d="M67.7381 48.1231V1.5H56.4153V51.6119M67.7381 48.1231H95.4788M67.7381 48.1231V54.7836M95.4788 48.1231V1.5H108.5V86.5H95.4788V54.7836M95.4788 48.1231V54.7836M67.7381 54.7836V86.5H56.4153V51.6119M67.7381 54.7836H95.4788M56.4153 51.6119H13.955M13.955 51.6119V48.1231V1.5H1.5V86.5H13.955V67.3116V51.6119ZM34.9021 1.5H47.3571V42.7313H34.9021V1.5ZM34.9021 60.4925H47.3571V86.5H34.9021V60.4925Z" stroke="#EAE7E7" stroke-width="3"/>
</svg>
