<svg width="115" height="104" viewBox="0 0 115 104" fill="none" xmlns="http://www.w3.org/2000/svg">
<path d="M26.9723 52V12.7273H36.4645V44.2912H52.8026V52H26.9723Z" fill="white"/>
<path d="M51.9723 65V25.7273H68.1953C71.1357 25.7273 73.6733 26.3026 75.8082 27.4531C77.956 28.5909 79.6115 30.1825 80.7749 32.228C81.9382 34.2607 82.5199 36.6257 82.5199 39.3232C82.5199 42.0334 81.9254 44.4048 80.7365 46.4375C79.5604 48.4574 77.8793 50.0234 75.6932 51.1357C73.5071 52.2479 70.9119 52.804 67.9077 52.804H57.8977V45.3253H66.1435C67.5753 45.3253 68.7706 45.076 69.7294 44.5774C70.701 44.0788 71.4361 43.3821 71.9347 42.4872C72.4332 41.5795 72.6825 40.5249 72.6825 39.3232C72.6825 38.1087 72.4332 37.0604 71.9347 36.1783C71.4361 35.2834 70.701 34.593 69.7294 34.1072C68.7578 33.6214 67.5625 33.3786 66.1435 33.3786H61.4645V65H51.9723Z" fill="white"/>
<path d="M2.31818 98V80.5455H3.91193V96.5682H12.2301V98H2.31818ZM19.1591 98.2983C18.3693 98.2983 17.6477 98.1449 16.9943 97.8381C16.3409 97.5256 15.821 97.0767 15.4347 96.4915C15.0483 95.9006 14.8551 95.1847 14.8551 94.3438C14.8551 93.696 14.9773 93.1506 15.2216 92.7074C15.4659 92.2642 15.8125 91.9006 16.2614 91.6165C16.7102 91.3324 17.2415 91.108 17.8551 90.9432C18.4688 90.7784 19.1449 90.6506 19.8835 90.5597C20.6165 90.4687 21.2358 90.3892 21.7415 90.321C22.2528 90.2528 22.642 90.1449 22.9091 89.9972C23.1761 89.8494 23.3097 89.6108 23.3097 89.2812V88.9744C23.3097 88.0824 23.0426 87.3807 22.5085 86.8693C21.9801 86.3523 21.2188 86.0938 20.2244 86.0938C19.2812 86.0938 18.5114 86.3011 17.9148 86.7159C17.3239 87.1307 16.9091 87.6193 16.6705 88.1818L15.2301 87.6619C15.5256 86.946 15.9347 86.375 16.4574 85.9489C16.9801 85.517 17.5653 85.2074 18.2131 85.0199C18.8608 84.8267 19.517 84.7301 20.1818 84.7301C20.6818 84.7301 21.2017 84.7955 21.7415 84.9261C22.2869 85.0568 22.7926 85.2841 23.2585 85.608C23.7244 85.9261 24.1023 86.3722 24.392 86.946C24.6818 87.5142 24.8267 88.2358 24.8267 89.1108V98H23.3097V95.929H23.2159C23.0341 96.3153 22.7642 96.6903 22.4062 97.054C22.0483 97.4176 21.5994 97.7159 21.0597 97.9489C20.5199 98.1818 19.8864 98.2983 19.1591 98.2983ZM19.3636 96.9091C20.1705 96.9091 20.8693 96.7301 21.4602 96.3722C22.0511 96.0142 22.5057 95.5398 22.8239 94.9489C23.1477 94.3523 23.3097 93.696 23.3097 92.9801V91.0881C23.196 91.196 23.0057 91.2926 22.7386 91.3778C22.4773 91.4631 22.1733 91.5398 21.8267 91.608C21.4858 91.6705 21.1449 91.7244 20.804 91.7699C20.4631 91.8153 20.1562 91.8551 19.8835 91.8892C19.1449 91.9801 18.5142 92.1222 17.9915 92.3153C17.4688 92.5085 17.0682 92.7756 16.7898 93.1165C16.5114 93.4517 16.3722 93.8835 16.3722 94.4119C16.3722 95.2074 16.6562 95.8239 17.2244 96.2614C17.7926 96.6932 18.5057 96.9091 19.3636 96.9091ZM35.6122 102.909V84.9091H37.0866V87.4062H37.2656C37.4474 87.0142 37.6974 86.6136 38.0156 86.2045C38.3338 85.7898 38.7543 85.4403 39.277 85.1562C39.8054 84.8722 40.4702 84.7301 41.2713 84.7301C42.3509 84.7301 43.294 85.0142 44.1009 85.5824C44.9134 86.1449 45.544 86.9347 45.9929 87.9517C46.4474 88.9631 46.6747 90.142 46.6747 91.4886C46.6747 92.8409 46.4474 94.0256 45.9929 95.0426C45.544 96.0597 44.9134 96.8523 44.1009 97.4205C43.294 97.9886 42.3565 98.2727 41.2884 98.2727C40.4986 98.2727 39.8366 98.1307 39.3026 97.8466C38.7741 97.5625 38.3452 97.2131 38.0156 96.7983C37.6918 96.3778 37.4418 95.9687 37.2656 95.571H37.1293V102.909H35.6122ZM37.1122 91.4631C37.1122 92.5199 37.2685 93.4574 37.581 94.2756C37.8991 95.0881 38.3537 95.7273 38.9446 96.1932C39.5412 96.6534 40.2628 96.8835 41.1094 96.8835C41.9787 96.8835 42.7116 96.6449 43.3082 96.1676C43.9105 95.6847 44.3679 95.0341 44.6804 94.2159C44.9986 93.3977 45.1577 92.4801 45.1577 91.4631C45.1577 90.4574 45.0014 89.5511 44.6889 88.7443C44.3821 87.9375 43.9276 87.2983 43.3253 86.8267C42.723 86.3494 41.9844 86.1108 41.1094 86.1108C40.2571 86.1108 39.5327 86.3409 38.9361 86.8011C38.3395 87.2557 37.8849 87.8864 37.5724 88.6932C37.2656 89.4943 37.1122 90.4176 37.1122 91.4631ZM50.0199 98V84.9091H51.5455V98H50.0199ZM50.7955 82.6591C50.483 82.6591 50.2159 82.554 49.9943 82.3438C49.7727 82.1278 49.6619 81.8693 49.6619 81.5682C49.6619 81.267 49.7727 81.0114 49.9943 80.8011C50.2159 80.5852 50.483 80.4773 50.7955 80.4773C51.108 80.4773 51.375 80.5852 51.5966 80.8011C51.8182 81.0114 51.929 81.267 51.929 81.5682C51.929 81.8693 51.8182 82.1278 51.5966 82.3438C51.375 82.554 51.108 82.6591 50.7955 82.6591ZM55.1484 98V96.7983L62.7166 86.4517V86.3409H55.4723V84.9091H64.6683V86.1619L57.2365 96.4574V96.5682H64.9411V98H55.1484ZM71.9403 98.2983C71.1506 98.2983 70.429 98.1449 69.7756 97.8381C69.1222 97.5256 68.6023 97.0767 68.2159 96.4915C67.8295 95.9006 67.6364 95.1847 67.6364 94.3438C67.6364 93.696 67.7585 93.1506 68.0028 92.7074C68.2472 92.2642 68.5938 91.9006 69.0426 91.6165C69.4915 91.3324 70.0227 91.108 70.6364 90.9432C71.25 90.7784 71.9261 90.6506 72.6648 90.5597C73.3977 90.4687 74.017 90.3892 74.5227 90.321C75.0341 90.2528 75.4233 90.1449 75.6903 89.9972C75.9574 89.8494 76.0909 89.6108 76.0909 89.2812V88.9744C76.0909 88.0824 75.8239 87.3807 75.2898 86.8693C74.7614 86.3523 74 86.0938 73.0057 86.0938C72.0625 86.0938 71.2926 86.3011 70.696 86.7159C70.1051 87.1307 69.6903 87.6193 69.4517 88.1818L68.0114 87.6619C68.3068 86.946 68.7159 86.375 69.2386 85.9489C69.7614 85.517 70.3466 85.2074 70.9943 85.0199C71.642 84.8267 72.2983 84.7301 72.9631 84.7301C73.4631 84.7301 73.983 84.7955 74.5227 84.9261C75.0682 85.0568 75.5739 85.2841 76.0398 85.608C76.5057 85.9261 76.8835 86.3722 77.1733 86.946C77.4631 87.5142 77.608 88.2358 77.608 89.1108V98H76.0909V95.929H75.9972C75.8153 96.3153 75.5455 96.6903 75.1875 97.054C74.8295 97.4176 74.3807 97.7159 73.8409 97.9489C73.3011 98.1818 72.6676 98.2983 71.9403 98.2983ZM72.1449 96.9091C72.9517 96.9091 73.6506 96.7301 74.2415 96.3722C74.8324 96.0142 75.2869 95.5398 75.6051 94.9489C75.929 94.3523 76.0909 93.696 76.0909 92.9801V91.0881C75.9773 91.196 75.7869 91.2926 75.5199 91.3778C75.2585 91.4631 74.9545 91.5398 74.608 91.608C74.267 91.6705 73.9261 91.7244 73.5852 91.7699C73.2443 91.8153 72.9375 91.8551 72.6648 91.8892C71.9261 91.9801 71.2955 92.1222 70.7727 92.3153C70.25 92.5085 69.8494 92.7756 69.571 93.1165C69.2926 93.4517 69.1534 93.8835 69.1534 94.4119C69.1534 95.2074 69.4375 95.8239 70.0057 96.2614C70.5739 96.6932 71.2869 96.9091 72.1449 96.9091ZM81.6435 98V84.9091H83.1179V86.9205H83.2287C83.4901 86.2614 83.9446 85.7301 84.5923 85.3267C85.2457 84.9176 85.9844 84.7131 86.8082 84.7131C86.9332 84.7131 87.0724 84.7159 87.2259 84.7216C87.3793 84.7273 87.5071 84.733 87.6094 84.7386V86.2812C87.5412 86.2699 87.4219 86.2528 87.2514 86.2301C87.081 86.2074 86.8963 86.196 86.6974 86.196C86.0156 86.196 85.4077 86.3409 84.8736 86.6307C84.3452 86.9148 83.9276 87.3097 83.6207 87.8153C83.3139 88.321 83.1605 88.8977 83.1605 89.5455V98H81.6435ZM90.1982 98V84.9091H91.6726V86.9205H91.7834C92.0447 86.2614 92.4993 85.7301 93.147 85.3267C93.8004 84.9176 94.5391 84.7131 95.3629 84.7131C95.4879 84.7131 95.6271 84.7159 95.7805 84.7216C95.9339 84.7273 96.0618 84.733 96.1641 84.7386V86.2812C96.0959 86.2699 95.9766 86.2528 95.8061 86.2301C95.6357 86.2074 95.451 86.196 95.2521 86.196C94.5703 86.196 93.9624 86.3409 93.4283 86.6307C92.8999 86.9148 92.4822 87.3097 92.1754 87.8153C91.8686 88.321 91.7152 88.8977 91.7152 89.5455V98H90.1982ZM102.409 98.2983C101.619 98.2983 100.898 98.1449 100.244 97.8381C99.5909 97.5256 99.071 97.0767 98.6847 96.4915C98.2983 95.9006 98.1051 95.1847 98.1051 94.3438C98.1051 93.696 98.2273 93.1506 98.4716 92.7074C98.7159 92.2642 99.0625 91.9006 99.5114 91.6165C99.9602 91.3324 100.491 91.108 101.105 90.9432C101.719 90.7784 102.395 90.6506 103.134 90.5597C103.866 90.4687 104.486 90.3892 104.991 90.321C105.503 90.2528 105.892 90.1449 106.159 89.9972C106.426 89.8494 106.56 89.6108 106.56 89.2812V88.9744C106.56 88.0824 106.293 87.3807 105.759 86.8693C105.23 86.3523 104.469 86.0938 103.474 86.0938C102.531 86.0938 101.761 86.3011 101.165 86.7159C100.574 87.1307 100.159 87.6193 99.9205 88.1818L98.4801 87.6619C98.7756 86.946 99.1847 86.375 99.7074 85.9489C100.23 85.517 100.815 85.2074 101.463 85.0199C102.111 84.8267 102.767 84.7301 103.432 84.7301C103.932 84.7301 104.452 84.7955 104.991 84.9261C105.537 85.0568 106.043 85.2841 106.509 85.608C106.974 85.9261 107.352 86.3722 107.642 86.946C107.932 87.5142 108.077 88.2358 108.077 89.1108V98H106.56V95.929H106.466C106.284 96.3153 106.014 96.6903 105.656 97.054C105.298 97.4176 104.849 97.7159 104.31 97.9489C103.77 98.1818 103.136 98.2983 102.409 98.2983ZM102.614 96.9091C103.42 96.9091 104.119 96.7301 104.71 96.3722C105.301 96.0142 105.756 95.5398 106.074 94.9489C106.398 94.3523 106.56 93.696 106.56 92.9801V91.0881C106.446 91.196 106.256 91.2926 105.989 91.3778C105.727 91.4631 105.423 91.5398 105.077 91.608C104.736 91.6705 104.395 91.7244 104.054 91.7699C103.713 91.8153 103.406 91.8551 103.134 91.8892C102.395 91.9801 101.764 92.1222 101.241 92.3153C100.719 92.5085 100.318 92.7756 100.04 93.1165C99.7614 93.4517 99.6222 93.8835 99.6222 94.4119C99.6222 95.2074 99.9062 95.8239 100.474 96.2614C101.043 96.6932 101.756 96.9091 102.614 96.9091Z" fill="white"/>
</svg>
