<svg width="183" height="84" viewBox="0 0 183 84" fill="none" xmlns="http://www.w3.org/2000/svg">
<path d="M2.9723 52V12.7273H12.4645V44.2912H28.8026V52H2.9723Z" fill="white"/>
<path d="M26.9723 65V25.7273H43.1953C46.1357 25.7273 48.6733 26.3026 50.8082 27.4531C52.956 28.5909 54.6115 30.1825 55.7749 32.228C56.9382 34.2607 57.5199 36.6257 57.5199 39.3232C57.5199 42.0334 56.9254 44.4048 55.7365 46.4375C54.5604 48.4574 52.8793 50.0234 50.6932 51.1357C48.5071 52.2479 45.9119 52.804 42.9077 52.804H32.8977V45.3253H41.1435C42.5753 45.3253 43.7706 45.076 44.7294 44.5774C45.701 44.0788 46.4361 43.3821 46.9347 42.4872C47.4332 41.5795 47.6825 40.5249 47.6825 39.3232C47.6825 38.1087 47.4332 37.0604 46.9347 36.1783C46.4361 35.2834 45.701 34.593 44.7294 34.1072C43.7578 33.6214 42.5625 33.3786 41.1435 33.3786H36.4645V65H26.9723Z" fill="white"/>
<path d="M70.3182 52V34.5455H71.9119V50.5682H80.2301V52H70.3182ZM87.1591 52.2983C86.3693 52.2983 85.6477 52.1449 84.9943 51.8381C84.3409 51.5256 83.821 51.0767 83.4347 50.4915C83.0483 49.9006 82.8551 49.1847 82.8551 48.3438C82.8551 47.696 82.9773 47.1506 83.2216 46.7074C83.4659 46.2642 83.8125 45.9006 84.2614 45.6165C84.7102 45.3324 85.2415 45.108 85.8551 44.9432C86.4688 44.7784 87.1449 44.6506 87.8835 44.5597C88.6165 44.4687 89.2358 44.3892 89.7415 44.321C90.2528 44.2528 90.642 44.1449 90.9091 43.9972C91.1761 43.8494 91.3097 43.6108 91.3097 43.2812V42.9744C91.3097 42.0824 91.0426 41.3807 90.5085 40.8693C89.9801 40.3523 89.2188 40.0938 88.2244 40.0938C87.2812 40.0938 86.5114 40.3011 85.9148 40.7159C85.3239 41.1307 84.9091 41.6193 84.6705 42.1818L83.2301 41.6619C83.5256 40.946 83.9347 40.375 84.4574 39.9489C84.9801 39.517 85.5653 39.2074 86.2131 39.0199C86.8608 38.8267 87.517 38.7301 88.1818 38.7301C88.6818 38.7301 89.2017 38.7955 89.7415 38.9261C90.2869 39.0568 90.7926 39.2841 91.2585 39.608C91.7244 39.9261 92.1023 40.3722 92.392 40.946C92.6818 41.5142 92.8267 42.2358 92.8267 43.1108V52H91.3097V49.929H91.2159C91.0341 50.3153 90.7642 50.6903 90.4062 51.054C90.0483 51.4176 89.5994 51.7159 89.0597 51.9489C88.5199 52.1818 87.8864 52.2983 87.1591 52.2983ZM87.3636 50.9091C88.1705 50.9091 88.8693 50.7301 89.4602 50.3722C90.0511 50.0142 90.5057 49.5398 90.8239 48.9489C91.1477 48.3523 91.3097 47.696 91.3097 46.9801V45.0881C91.196 45.196 91.0057 45.2926 90.7386 45.3778C90.4773 45.4631 90.1733 45.5398 89.8267 45.608C89.4858 45.6705 89.1449 45.7244 88.804 45.7699C88.4631 45.8153 88.1562 45.8551 87.8835 45.8892C87.1449 45.9801 86.5142 46.1222 85.9915 46.3153C85.4688 46.5085 85.0682 46.7756 84.7898 47.1165C84.5114 47.4517 84.3722 47.8835 84.3722 48.4119C84.3722 49.2074 84.6562 49.8239 85.2244 50.2614C85.7926 50.6932 86.5057 50.9091 87.3636 50.9091ZM103.612 56.9091V38.9091H105.087V41.4062H105.266C105.447 41.0142 105.697 40.6136 106.016 40.2045C106.334 39.7898 106.754 39.4403 107.277 39.1562C107.805 38.8722 108.47 38.7301 109.271 38.7301C110.351 38.7301 111.294 39.0142 112.101 39.5824C112.913 40.1449 113.544 40.9347 113.993 41.9517C114.447 42.9631 114.675 44.142 114.675 45.4886C114.675 46.8409 114.447 48.0256 113.993 49.0426C113.544 50.0597 112.913 50.8523 112.101 51.4205C111.294 51.9886 110.357 52.2727 109.288 52.2727C108.499 52.2727 107.837 52.1307 107.303 51.8466C106.774 51.5625 106.345 51.2131 106.016 50.7983C105.692 50.3778 105.442 49.9687 105.266 49.571H105.129V56.9091H103.612ZM105.112 45.4631C105.112 46.5199 105.268 47.4574 105.581 48.2756C105.899 49.0881 106.354 49.7273 106.945 50.1932C107.541 50.6534 108.263 50.8835 109.109 50.8835C109.979 50.8835 110.712 50.6449 111.308 50.1676C111.911 49.6847 112.368 49.0341 112.68 48.2159C112.999 47.3977 113.158 46.4801 113.158 45.4631C113.158 44.4574 113.001 43.5511 112.689 42.7443C112.382 41.9375 111.928 41.2983 111.325 40.8267C110.723 40.3494 109.984 40.1108 109.109 40.1108C108.257 40.1108 107.533 40.3409 106.936 40.8011C106.339 41.2557 105.885 41.8864 105.572 42.6932C105.266 43.4943 105.112 44.4176 105.112 45.4631ZM118.02 52V38.9091H119.545V52H118.02ZM118.795 36.6591C118.483 36.6591 118.216 36.554 117.994 36.3438C117.773 36.1278 117.662 35.8693 117.662 35.5682C117.662 35.267 117.773 35.0114 117.994 34.8011C118.216 34.5852 118.483 34.4773 118.795 34.4773C119.108 34.4773 119.375 34.5852 119.597 34.8011C119.818 35.0114 119.929 35.267 119.929 35.5682C119.929 35.8693 119.818 36.1278 119.597 36.3438C119.375 36.554 119.108 36.6591 118.795 36.6591ZM123.148 52V50.7983L130.717 40.4517V40.3409H123.472V38.9091H132.668V40.1619L125.237 50.4574V50.5682H132.941V52H123.148ZM139.94 52.2983C139.151 52.2983 138.429 52.1449 137.776 51.8381C137.122 51.5256 136.602 51.0767 136.216 50.4915C135.83 49.9006 135.636 49.1847 135.636 48.3438C135.636 47.696 135.759 47.1506 136.003 46.7074C136.247 46.2642 136.594 45.9006 137.043 45.6165C137.491 45.3324 138.023 45.108 138.636 44.9432C139.25 44.7784 139.926 44.6506 140.665 44.5597C141.398 44.4687 142.017 44.3892 142.523 44.321C143.034 44.2528 143.423 44.1449 143.69 43.9972C143.957 43.8494 144.091 43.6108 144.091 43.2812V42.9744C144.091 42.0824 143.824 41.3807 143.29 40.8693C142.761 40.3523 142 40.0938 141.006 40.0938C140.062 40.0938 139.293 40.3011 138.696 40.7159C138.105 41.1307 137.69 41.6193 137.452 42.1818L136.011 41.6619C136.307 40.946 136.716 40.375 137.239 39.9489C137.761 39.517 138.347 39.2074 138.994 39.0199C139.642 38.8267 140.298 38.7301 140.963 38.7301C141.463 38.7301 141.983 38.7955 142.523 38.9261C143.068 39.0568 143.574 39.2841 144.04 39.608C144.506 39.9261 144.884 40.3722 145.173 40.946C145.463 41.5142 145.608 42.2358 145.608 43.1108V52H144.091V49.929H143.997C143.815 50.3153 143.545 50.6903 143.188 51.054C142.83 51.4176 142.381 51.7159 141.841 51.9489C141.301 52.1818 140.668 52.2983 139.94 52.2983ZM140.145 50.9091C140.952 50.9091 141.651 50.7301 142.241 50.3722C142.832 50.0142 143.287 49.5398 143.605 48.9489C143.929 48.3523 144.091 47.696 144.091 46.9801V45.0881C143.977 45.196 143.787 45.2926 143.52 45.3778C143.259 45.4631 142.955 45.5398 142.608 45.608C142.267 45.6705 141.926 45.7244 141.585 45.7699C141.244 45.8153 140.938 45.8551 140.665 45.8892C139.926 45.9801 139.295 46.1222 138.773 46.3153C138.25 46.5085 137.849 46.7756 137.571 47.1165C137.293 47.4517 137.153 47.8835 137.153 48.4119C137.153 49.2074 137.438 49.8239 138.006 50.2614C138.574 50.6932 139.287 50.9091 140.145 50.9091ZM149.643 52V38.9091H151.118V40.9205H151.229C151.49 40.2614 151.945 39.7301 152.592 39.3267C153.246 38.9176 153.984 38.7131 154.808 38.7131C154.933 38.7131 155.072 38.7159 155.226 38.7216C155.379 38.7273 155.507 38.733 155.609 38.7386V40.2812C155.541 40.2699 155.422 40.2528 155.251 40.2301C155.081 40.2074 154.896 40.196 154.697 40.196C154.016 40.196 153.408 40.3409 152.874 40.6307C152.345 40.9148 151.928 41.3097 151.621 41.8153C151.314 42.321 151.161 42.8977 151.161 43.5455V52H149.643ZM158.198 52V38.9091H159.673V40.9205H159.783C160.045 40.2614 160.499 39.7301 161.147 39.3267C161.8 38.9176 162.539 38.7131 163.363 38.7131C163.488 38.7131 163.627 38.7159 163.781 38.7216C163.934 38.7273 164.062 38.733 164.164 38.7386V40.2812C164.096 40.2699 163.977 40.2528 163.806 40.2301C163.636 40.2074 163.451 40.196 163.252 40.196C162.57 40.196 161.962 40.3409 161.428 40.6307C160.9 40.9148 160.482 41.3097 160.175 41.8153C159.869 42.321 159.715 42.8977 159.715 43.5455V52H158.198ZM170.409 52.2983C169.619 52.2983 168.898 52.1449 168.244 51.8381C167.591 51.5256 167.071 51.0767 166.685 50.4915C166.298 49.9006 166.105 49.1847 166.105 48.3438C166.105 47.696 166.227 47.1506 166.472 46.7074C166.716 46.2642 167.063 45.9006 167.511 45.6165C167.96 45.3324 168.491 45.108 169.105 44.9432C169.719 44.7784 170.395 44.6506 171.134 44.5597C171.866 44.4687 172.486 44.3892 172.991 44.321C173.503 44.2528 173.892 44.1449 174.159 43.9972C174.426 43.8494 174.56 43.6108 174.56 43.2812V42.9744C174.56 42.0824 174.293 41.3807 173.759 40.8693C173.23 40.3523 172.469 40.0938 171.474 40.0938C170.531 40.0938 169.761 40.3011 169.165 40.7159C168.574 41.1307 168.159 41.6193 167.92 42.1818L166.48 41.6619C166.776 40.946 167.185 40.375 167.707 39.9489C168.23 39.517 168.815 39.2074 169.463 39.0199C170.111 38.8267 170.767 38.7301 171.432 38.7301C171.932 38.7301 172.452 38.7955 172.991 38.9261C173.537 39.0568 174.043 39.2841 174.509 39.608C174.974 39.9261 175.352 40.3722 175.642 40.946C175.932 41.5142 176.077 42.2358 176.077 43.1108V52H174.56V49.929H174.466C174.284 50.3153 174.014 50.6903 173.656 51.054C173.298 51.4176 172.849 51.7159 172.31 51.9489C171.77 52.1818 171.136 52.2983 170.409 52.2983ZM170.614 50.9091C171.42 50.9091 172.119 50.7301 172.71 50.3722C173.301 50.0142 173.756 49.5398 174.074 48.9489C174.398 48.3523 174.56 47.696 174.56 46.9801V45.0881C174.446 45.196 174.256 45.2926 173.989 45.3778C173.727 45.4631 173.423 45.5398 173.077 45.608C172.736 45.6705 172.395 45.7244 172.054 45.7699C171.713 45.8153 171.406 45.8551 171.134 45.8892C170.395 45.9801 169.764 46.1222 169.241 46.3153C168.719 46.5085 168.318 46.7756 168.04 47.1165C167.761 47.4517 167.622 47.8835 167.622 48.4119C167.622 49.2074 167.906 49.8239 168.474 50.2614C169.043 50.6932 169.756 50.9091 170.614 50.9091Z" fill="white"/>
</svg>
