<svg width="577" height="88" viewBox="0 0 577 88" fill="none" xmlns="http://www.w3.org/2000/svg">
<path d="M164.77 65.5H158.822V45.4609H139.311V65.5H133.363V21.8477H139.311V40.832H158.822V21.8477H164.77V65.5ZM199.223 65.5H174.496V21.8477H198.959L199.545 26.3594H180.443V40.3926H196.762V45.1387H180.443V61.0176H199.809L199.223 65.5ZM232.855 51.9648L237.953 52.7266C237.855 54.6016 237.689 56.2031 237.455 57.5312C237.221 58.8398 236.869 60.0117 236.4 61.0469C235.951 62.082 235.395 62.9219 234.73 63.5664C234.066 64.1914 233.207 64.709 232.152 65.1191C231.117 65.5293 229.945 65.8125 228.637 65.9688C227.348 66.125 225.785 66.2031 223.949 66.2031C222.191 66.2031 220.619 66.1543 219.232 66.0566C217.846 65.9785 216.576 65.793 215.424 65.5C214.291 65.1875 213.295 64.8945 212.436 64.6211C211.596 64.3281 210.844 63.8496 210.18 63.1855C209.535 62.5215 208.988 61.9258 208.539 61.3984C208.109 60.8711 207.738 60.0703 207.426 58.9961C207.133 57.9023 206.908 56.9453 206.752 56.125C206.596 55.3047 206.469 54.1133 206.371 52.5508C206.293 50.9883 206.244 49.6211 206.225 48.4492C206.205 47.2773 206.195 45.6562 206.195 43.5859C206.195 41.3984 206.205 39.6406 206.225 38.3125C206.244 36.9844 206.303 35.5391 206.4 33.9766C206.498 32.4141 206.615 31.2031 206.752 30.3438C206.908 29.4844 207.143 28.5469 207.455 27.5312C207.787 26.4961 208.158 25.7344 208.568 25.2461C208.979 24.7383 209.516 24.1914 210.18 23.6055C210.844 23.0195 211.566 22.6191 212.348 22.4043C213.148 22.1699 214.115 21.9355 215.248 21.7012C216.381 21.4668 217.592 21.3203 218.881 21.2617C220.189 21.2031 221.703 21.1738 223.422 21.1738C225.199 21.1738 226.713 21.2422 227.963 21.3789C229.213 21.4961 230.385 21.7402 231.479 22.1113C232.572 22.4629 233.471 22.9414 234.174 23.5469C234.877 24.1328 235.492 24.9043 236.02 25.8613C236.566 26.8184 236.986 27.9512 237.279 29.2598C237.572 30.5488 237.787 32.1016 237.924 33.918L232.797 34.9141C232.699 33.918 232.611 33.0879 232.533 32.4238C232.455 31.7598 232.338 31.1055 232.182 30.4609C232.045 29.8164 231.928 29.2988 231.83 28.9082C231.752 28.498 231.576 28.1074 231.303 27.7363C231.029 27.3457 230.805 27.0527 230.629 26.8574C230.473 26.6621 230.17 26.4766 229.721 26.3008C229.271 26.125 228.891 26.0078 228.578 25.9492C228.285 25.8711 227.787 25.8027 227.084 25.7441C226.4 25.6855 225.805 25.6562 225.297 25.6562C224.789 25.6562 224.047 25.6562 223.07 25.6562C221.703 25.6562 220.58 25.6758 219.701 25.7148C218.842 25.7344 217.973 25.8027 217.094 25.9199C216.234 26.0176 215.551 26.1738 215.043 26.3887C214.555 26.584 214.096 26.8574 213.666 27.209C213.236 27.541 212.924 27.9609 212.729 28.4688C212.553 28.957 212.445 29.5527 212.406 30.2559C212.23 35.4121 212.143 40.6758 212.143 46.0469C212.143 49.7969 212.23 53.459 212.406 57.0332C212.504 58.1465 212.816 59.0156 213.344 59.6406C213.891 60.2656 214.936 60.7637 216.479 61.1348C218.041 61.5059 220.248 61.6914 223.1 61.6914C224.623 61.6914 225.902 61.6523 226.938 61.5742C227.973 61.4766 228.842 61.2715 229.545 60.959C230.248 60.627 230.785 60.334 231.156 60.0801C231.527 59.8066 231.82 59.2891 232.035 58.5273C232.27 57.7656 232.416 57.1309 232.475 56.623C232.553 56.0957 232.631 55.207 232.709 53.957C232.729 53.6836 232.738 53.4688 232.738 53.3125C232.758 53.1562 232.777 52.9512 232.797 52.6973C232.816 52.4238 232.836 52.1797 232.855 51.9648ZM269.711 26.3594H258.314V65.5H252.367V26.3594H241.205V21.8477H269.711V26.3594ZM290.629 66.2031C288.93 66.2031 287.416 66.1641 286.088 66.0859C284.779 66.0078 283.568 65.8125 282.455 65.5C281.342 65.207 280.385 64.9336 279.584 64.6797C278.803 64.4258 278.09 63.9473 277.445 63.2441C276.82 62.5215 276.303 61.9062 275.893 61.3984C275.482 60.8711 275.131 60.0117 274.838 58.8203C274.545 57.6094 274.33 56.584 274.193 55.7441C274.057 54.8848 273.939 53.5664 273.842 51.7891C273.764 50.0117 273.715 48.4883 273.695 47.2188C273.695 45.9492 273.695 44.1133 273.695 41.7109C273.695 38.8203 273.773 36.418 273.93 34.5039C274.086 32.5898 274.389 30.8125 274.838 29.1719C275.307 27.5312 275.912 26.2422 276.654 25.3047C277.416 24.3672 278.441 23.5664 279.73 22.9023C281.039 22.2188 282.553 21.7598 284.271 21.5254C286.01 21.2715 288.129 21.1445 290.629 21.1445C292.992 21.1445 295.014 21.2617 296.693 21.4961C298.373 21.7305 299.857 22.1504 301.146 22.7559C302.455 23.3418 303.5 24.084 304.281 24.9824C305.082 25.8613 305.736 27.0234 306.244 28.4688C306.752 29.9141 307.094 31.5352 307.27 33.332C307.465 35.1094 307.562 37.2773 307.562 39.8359C307.562 47.0625 307.455 51.8184 307.24 54.1035C306.869 58.0098 305.971 60.8027 304.545 62.4824C303.041 64.2793 300.482 65.4121 296.869 65.8809C295.15 66.0957 293.07 66.2031 290.629 66.2031ZM294.818 25.7734C293.705 25.6953 292.309 25.6562 290.629 25.6562C288.949 25.6562 287.553 25.6953 286.439 25.7734C285.326 25.8516 284.35 26.0176 283.51 26.2715C282.689 26.5254 282.055 26.8086 281.605 27.1211C281.156 27.4336 280.785 27.9219 280.492 28.5859C280.219 29.2305 280.033 29.8945 279.936 30.5781C279.857 31.2617 279.799 32.1895 279.76 33.3613C279.701 36.9746 279.672 40.6074 279.672 44.2598C279.672 49.7676 279.818 53.5371 280.111 55.5684C280.58 58.6152 281.469 60.373 282.777 60.8418C283.754 61.4082 286.371 61.6914 290.629 61.6914C294.887 61.6914 297.504 61.4082 298.48 60.8418C298.852 60.7051 299.184 60.4805 299.477 60.168C299.789 59.8555 300.043 59.4355 300.238 58.9082C300.453 58.3809 300.639 57.8535 300.795 57.3262C300.951 56.7793 301.078 56.0859 301.176 55.2461C301.273 54.4062 301.352 53.6543 301.41 52.9902C301.469 52.3066 301.508 51.4473 301.527 50.4121C301.547 49.3574 301.557 48.4883 301.557 47.8047C301.576 47.1211 301.586 46.2129 301.586 45.0801C301.586 41.1348 301.557 37.2285 301.498 33.3613C301.459 32.1895 301.391 31.2617 301.293 30.5781C301.215 29.8945 301.029 29.2305 300.736 28.5859C300.463 27.9219 300.102 27.4336 299.652 27.1211C299.203 26.8086 298.559 26.5254 297.719 26.2715C296.898 26.0176 295.932 25.8516 294.818 25.7734ZM346.557 33.8594C346.557 37.5898 345.854 40.3633 344.447 42.1797C343.041 43.9766 341.078 45.0801 338.559 45.4902C342.309 46.252 344.535 48.6348 345.238 52.6387L347.494 65.5H341.137C340.98 64.6016 340.795 63.3027 340.58 61.6035C340.385 59.8848 340.199 58.4395 340.023 57.2676C339.848 56.0762 339.613 54.8164 339.32 53.4883C339.027 52.1602 338.637 51.0469 338.148 50.1484C337.68 49.25 337.113 48.5859 336.449 48.1562C335.395 47.707 333.666 47.4824 331.264 47.4824H322.211V65.5H316.293V21.8477H329.623C331.029 21.8477 332.221 21.8672 333.197 21.9062C334.193 21.9258 335.238 21.9844 336.332 22.082C337.426 22.1797 338.344 22.3164 339.086 22.4922C339.828 22.668 340.58 22.9023 341.342 23.1953C342.123 23.4883 342.758 23.8496 343.246 24.2793C343.754 24.709 344.232 25.2266 344.682 25.832C345.131 26.418 345.482 27.1016 345.736 27.8828C345.99 28.6445 346.186 29.5234 346.322 30.5195C346.479 31.5156 346.557 32.6289 346.557 33.8594ZM340.697 36.1738V32.1016C340.697 31.3594 340.678 30.7832 340.639 30.373C340.619 29.9434 340.551 29.4941 340.434 29.0254C340.316 28.5371 340.131 28.1758 339.877 27.9414C339.643 27.6875 339.32 27.4434 338.91 27.209C338.52 26.9551 338.002 26.7793 337.357 26.6816C336.732 26.584 335.99 26.5059 335.131 26.4473C334.291 26.3691 333.275 26.3301 332.084 26.3301H322.211V42.8242H332.436C333.939 42.8242 335.18 42.7461 336.156 42.5898C337.133 42.4336 337.924 42.2188 338.529 41.9453C339.154 41.6523 339.623 41.2227 339.936 40.6562C340.248 40.0703 340.453 39.4551 340.551 38.8105C340.648 38.1465 340.697 37.2676 340.697 36.1738ZM398.266 65.5H392.318V45.4609H372.807V65.5H366.859V21.8477H372.807V40.832H392.318V21.8477H398.266V65.5ZM438.9 65.5H432.865L429.555 54.3379H413.412L410.219 65.5H404.506L417.895 21.8477H425.834L438.9 65.5ZM428.324 50.1191L424.633 37.0234L421.586 26.3008C420.453 30.3438 419.457 33.8203 418.598 36.7305L414.672 50.1191H428.324ZM475.404 33.8594C475.404 37.5898 474.701 40.3633 473.295 42.1797C471.889 43.9766 469.926 45.0801 467.406 45.4902C471.156 46.252 473.383 48.6348 474.086 52.6387L476.342 65.5H469.984C469.828 64.6016 469.643 63.3027 469.428 61.6035C469.232 59.8848 469.047 58.4395 468.871 57.2676C468.695 56.0762 468.461 54.8164 468.168 53.4883C467.875 52.1602 467.484 51.0469 466.996 50.1484C466.527 49.25 465.961 48.5859 465.297 48.1562C464.242 47.707 462.514 47.4824 460.111 47.4824H451.059V65.5H445.141V21.8477H458.471C459.877 21.8477 461.068 21.8672 462.045 21.9062C463.041 21.9258 464.086 21.9844 465.18 22.082C466.273 22.1797 467.191 22.3164 467.934 22.4922C468.676 22.668 469.428 22.9023 470.189 23.1953C470.971 23.4883 471.605 23.8496 472.094 24.2793C472.602 24.709 473.08 25.2266 473.529 25.832C473.979 26.418 474.33 27.1016 474.584 27.8828C474.838 28.6445 475.033 29.5234 475.17 30.5195C475.326 31.5156 475.404 32.6289 475.404 33.8594ZM469.545 36.1738V32.1016C469.545 31.3594 469.525 30.7832 469.486 30.373C469.467 29.9434 469.398 29.4941 469.281 29.0254C469.164 28.5371 468.979 28.1758 468.725 27.9414C468.49 27.6875 468.168 27.4434 467.758 27.209C467.367 26.9551 466.85 26.7793 466.205 26.6816C465.58 26.584 464.838 26.5059 463.979 26.4473C463.139 26.3691 462.123 26.3301 460.932 26.3301H451.059V42.8242H461.283C462.787 42.8242 464.027 42.7461 465.004 42.5898C465.98 42.4336 466.771 42.2188 467.377 41.9453C468.002 41.6523 468.471 41.2227 468.783 40.6562C469.096 40.0703 469.301 39.4551 469.398 38.8105C469.496 38.1465 469.545 37.2676 469.545 36.1738ZM516.42 39.8359C516.42 42.5117 516.4 44.7188 516.361 46.457C516.342 48.1758 516.254 49.9434 516.098 51.7598C515.941 53.5566 515.775 54.9824 515.6 56.0371C515.424 57.0918 515.092 58.1758 514.604 59.2891C514.135 60.3828 513.666 61.2031 513.197 61.75C512.748 62.2773 512.055 62.8242 511.117 63.3906C510.18 63.957 509.262 64.3379 508.363 64.5332C507.465 64.7285 506.244 64.9238 504.701 65.1191C503.178 65.3145 501.674 65.4316 500.189 65.4707C498.725 65.4902 496.859 65.5 494.594 65.5H483.988V21.8477H499.105C501.566 21.8477 503.646 21.9551 505.346 22.1699C507.045 22.3652 508.559 22.7461 509.887 23.3125C511.234 23.8594 512.309 24.5527 513.109 25.3926C513.91 26.2324 514.564 27.3555 515.072 28.7617C515.6 30.1484 515.951 31.7109 516.127 33.4492C516.322 35.1875 516.42 37.3164 516.42 39.8359ZM510.531 39.9238C510.531 38.127 510.521 36.8379 510.502 36.0566C510.502 35.2559 510.434 34.2598 510.297 33.0684C510.18 31.877 510.004 31.0664 509.77 30.6367C509.555 30.1875 509.203 29.6211 508.715 28.9375C508.227 28.2539 507.65 27.8242 506.986 27.6484C506.342 27.4531 505.482 27.2187 504.408 26.9453C503.354 26.6523 502.172 26.4863 500.863 26.4473C499.555 26.3887 497.963 26.3594 496.088 26.3594H489.936V61.0176H496.967C498.646 61.0176 499.955 61.0078 500.893 60.9883C501.83 60.9492 502.846 60.8613 503.939 60.7246C505.033 60.5879 505.834 60.4121 506.342 60.1973C506.869 59.9629 507.436 59.6113 508.041 59.1426C508.646 58.6543 509.066 58.1074 509.301 57.502C509.535 56.877 509.77 56.0664 510.004 55.0703C510.238 54.0547 510.385 52.9414 510.443 51.7305C510.502 50.5195 510.531 49.0547 510.531 47.3359V39.9238ZM551.605 21.8477L538.393 50.3242V65.5H532.475V50.3242L519.643 21.8477H526.117L535.639 44.2012L545.336 21.8477H551.605Z" fill="#002603"/>
<path d="M1.5 1.5H13.955V48.1231V51.6119H56.4153V1.5H67.7381V48.1231H95.4788V1.5H108.5V86.5H95.4788V54.7836H67.7381V86.5H56.4153V51.6119H13.955V67.3116V86.5H1.5V1.5Z" fill="#002603"/>
<path d="M47.3571 1.5H34.9021V42.7313H47.3571V1.5Z" fill="#002603"/>
<path d="M47.3571 60.4925H34.9021V86.5H47.3571V60.4925Z" fill="#002603"/>
<path d="M67.7381 48.1231V1.5H56.4153V51.6119M67.7381 48.1231H95.4788M67.7381 48.1231V54.7836M95.4788 48.1231V1.5H108.5V86.5H95.4788V54.7836M95.4788 48.1231V54.7836M67.7381 54.7836V86.5H56.4153V51.6119M67.7381 54.7836H95.4788M56.4153 51.6119H13.955M13.955 51.6119V48.1231V1.5H1.5V86.5H13.955V67.3116V51.6119ZM34.9021 1.5H47.3571V42.7313H34.9021V1.5ZM34.9021 60.4925H47.3571V86.5H34.9021V60.4925Z" stroke="#002603" stroke-width="3"/>
</svg>
