<svg width="448" height="174" viewBox="0 0 448 174" fill="none" xmlns="http://www.w3.org/2000/svg">
<path d="M36.2695 154.5H30.3223V134.461H10.8105V154.5H4.86328V110.848H10.8105V129.832H30.3223V110.848H36.2695V154.5ZM70.7227 154.5H45.9961V110.848H70.459L71.0449 115.359H51.9434V129.393H68.2617V134.139H51.9434V150.018H71.3086L70.7227 154.5ZM104.355 140.965L109.453 141.727C109.355 143.602 109.189 145.203 108.955 146.531C108.721 147.84 108.369 149.012 107.9 150.047C107.451 151.082 106.895 151.922 106.23 152.566C105.566 153.191 104.707 153.709 103.652 154.119C102.617 154.529 101.445 154.812 100.137 154.969C98.8477 155.125 97.2852 155.203 95.4492 155.203C93.6914 155.203 92.1191 155.154 90.7324 155.057C89.3457 154.979 88.0762 154.793 86.9238 154.5C85.791 154.188 84.7949 153.895 83.9355 153.621C83.0957 153.328 82.3438 152.85 81.6797 152.186C81.0352 151.521 80.4883 150.926 80.0391 150.398C79.6094 149.871 79.2383 149.07 78.9258 147.996C78.6328 146.902 78.4082 145.945 78.252 145.125C78.0957 144.305 77.9688 143.113 77.8711 141.551C77.793 139.988 77.7441 138.621 77.7246 137.449C77.7051 136.277 77.6953 134.656 77.6953 132.586C77.6953 130.398 77.7051 128.641 77.7246 127.312C77.7441 125.984 77.8027 124.539 77.9004 122.977C77.998 121.414 78.1152 120.203 78.252 119.344C78.4082 118.484 78.6426 117.547 78.9551 116.531C79.2871 115.496 79.6582 114.734 80.0684 114.246C80.4785 113.738 81.0156 113.191 81.6797 112.605C82.3438 112.02 83.0664 111.619 83.8477 111.404C84.6484 111.17 85.6152 110.936 86.748 110.701C87.8809 110.467 89.0918 110.32 90.3809 110.262C91.6895 110.203 93.2031 110.174 94.9219 110.174C96.6992 110.174 98.2129 110.242 99.4629 110.379C100.713 110.496 101.885 110.74 102.979 111.111C104.072 111.463 104.971 111.941 105.674 112.547C106.377 113.133 106.992 113.904 107.52 114.861C108.066 115.818 108.486 116.951 108.779 118.26C109.072 119.549 109.287 121.102 109.424 122.918L104.297 123.914C104.199 122.918 104.111 122.088 104.033 121.424C103.955 120.76 103.838 120.105 103.682 119.461C103.545 118.816 103.428 118.299 103.33 117.908C103.252 117.498 103.076 117.107 102.803 116.736C102.529 116.346 102.305 116.053 102.129 115.857C101.973 115.662 101.67 115.477 101.221 115.301C100.771 115.125 100.391 115.008 100.078 114.949C99.7852 114.871 99.2871 114.803 98.584 114.744C97.9004 114.686 97.3047 114.656 96.7969 114.656C96.2891 114.656 95.5469 114.656 94.5703 114.656C93.2031 114.656 92.0801 114.676 91.2012 114.715C90.3418 114.734 89.4727 114.803 88.5938 114.92C87.7344 115.018 87.0508 115.174 86.543 115.389C86.0547 115.584 85.5957 115.857 85.166 116.209C84.7363 116.541 84.4238 116.961 84.2285 117.469C84.0527 117.957 83.9453 118.553 83.9062 119.256C83.7305 124.412 83.6426 129.676 83.6426 135.047C83.6426 138.797 83.7305 142.459 83.9062 146.033C84.0039 147.146 84.3164 148.016 84.8438 148.641C85.3906 149.266 86.4355 149.764 87.9785 150.135C89.541 150.506 91.748 150.691 94.5996 150.691C96.123 150.691 97.4023 150.652 98.4375 150.574C99.4727 150.477 100.342 150.271 101.045 149.959C101.748 149.627 102.285 149.334 102.656 149.08C103.027 148.807 103.32 148.289 103.535 147.527C103.77 146.766 103.916 146.131 103.975 145.623C104.053 145.096 104.131 144.207 104.209 142.957C104.229 142.684 104.238 142.469 104.238 142.312C104.258 142.156 104.277 141.951 104.297 141.697C104.316 141.424 104.336 141.18 104.355 140.965ZM141.211 115.359H129.814V154.5H123.867V115.359H112.705V110.848H141.211V115.359ZM162.129 155.203C160.43 155.203 158.916 155.164 157.588 155.086C156.279 155.008 155.068 154.812 153.955 154.5C152.842 154.207 151.885 153.934 151.084 153.68C150.303 153.426 149.59 152.947 148.945 152.244C148.32 151.521 147.803 150.906 147.393 150.398C146.982 149.871 146.631 149.012 146.338 147.82C146.045 146.609 145.83 145.584 145.693 144.744C145.557 143.885 145.439 142.566 145.342 140.789C145.264 139.012 145.215 137.488 145.195 136.219C145.195 134.949 145.195 133.113 145.195 130.711C145.195 127.82 145.273 125.418 145.43 123.504C145.586 121.59 145.889 119.812 146.338 118.172C146.807 116.531 147.412 115.242 148.154 114.305C148.916 113.367 149.941 112.566 151.23 111.902C152.539 111.219 154.053 110.76 155.771 110.525C157.51 110.271 159.629 110.145 162.129 110.145C164.492 110.145 166.514 110.262 168.193 110.496C169.873 110.73 171.357 111.15 172.646 111.756C173.955 112.342 175 113.084 175.781 113.982C176.582 114.861 177.236 116.023 177.744 117.469C178.252 118.914 178.594 120.535 178.77 122.332C178.965 124.109 179.062 126.277 179.062 128.836C179.062 136.062 178.955 140.818 178.74 143.104C178.369 147.01 177.471 149.803 176.045 151.482C174.541 153.279 171.982 154.412 168.369 154.881C166.65 155.096 164.57 155.203 162.129 155.203ZM166.318 114.773C165.205 114.695 163.809 114.656 162.129 114.656C160.449 114.656 159.053 114.695 157.939 114.773C156.826 114.852 155.85 115.018 155.01 115.271C154.189 115.525 153.555 115.809 153.105 116.121C152.656 116.434 152.285 116.922 151.992 117.586C151.719 118.23 151.533 118.895 151.436 119.578C151.357 120.262 151.299 121.189 151.26 122.361C151.201 125.975 151.172 129.607 151.172 133.26C151.172 138.768 151.318 142.537 151.611 144.568C152.08 147.615 152.969 149.373 154.277 149.842C155.254 150.408 157.871 150.691 162.129 150.691C166.387 150.691 169.004 150.408 169.98 149.842C170.352 149.705 170.684 149.48 170.977 149.168C171.289 148.855 171.543 148.436 171.738 147.908C171.953 147.381 172.139 146.854 172.295 146.326C172.451 145.779 172.578 145.086 172.676 144.246C172.773 143.406 172.852 142.654 172.91 141.99C172.969 141.307 173.008 140.447 173.027 139.412C173.047 138.357 173.057 137.488 173.057 136.805C173.076 136.121 173.086 135.213 173.086 134.08C173.086 130.135 173.057 126.229 172.998 122.361C172.959 121.189 172.891 120.262 172.793 119.578C172.715 118.895 172.529 118.23 172.236 117.586C171.963 116.922 171.602 116.434 171.152 116.121C170.703 115.809 170.059 115.525 169.219 115.271C168.398 115.018 167.432 114.852 166.318 114.773ZM218.057 122.859C218.057 126.59 217.354 129.363 215.947 131.18C214.541 132.977 212.578 134.08 210.059 134.49C213.809 135.252 216.035 137.635 216.738 141.639L218.994 154.5H212.637C212.48 153.602 212.295 152.303 212.08 150.604C211.885 148.885 211.699 147.439 211.523 146.268C211.348 145.076 211.113 143.816 210.82 142.488C210.527 141.16 210.137 140.047 209.648 139.148C209.18 138.25 208.613 137.586 207.949 137.156C206.895 136.707 205.166 136.482 202.764 136.482H193.711V154.5H187.793V110.848H201.123C202.529 110.848 203.721 110.867 204.697 110.906C205.693 110.926 206.738 110.984 207.832 111.082C208.926 111.18 209.844 111.316 210.586 111.492C211.328 111.668 212.08 111.902 212.842 112.195C213.623 112.488 214.258 112.85 214.746 113.279C215.254 113.709 215.732 114.227 216.182 114.832C216.631 115.418 216.982 116.102 217.236 116.883C217.49 117.645 217.686 118.523 217.822 119.52C217.979 120.516 218.057 121.629 218.057 122.859ZM212.197 125.174V121.102C212.197 120.359 212.178 119.783 212.139 119.373C212.119 118.943 212.051 118.494 211.934 118.025C211.816 117.537 211.631 117.176 211.377 116.941C211.143 116.688 210.82 116.443 210.41 116.209C210.02 115.955 209.502 115.779 208.857 115.682C208.232 115.584 207.49 115.506 206.631 115.447C205.791 115.369 204.775 115.33 203.584 115.33H193.711V131.824H203.936C205.439 131.824 206.68 131.746 207.656 131.59C208.633 131.434 209.424 131.219 210.029 130.945C210.654 130.652 211.123 130.223 211.436 129.656C211.748 129.07 211.953 128.455 212.051 127.811C212.148 127.146 212.197 126.268 212.197 125.174ZM269.766 154.5H263.818V134.461H244.307V154.5H238.359V110.848H244.307V129.832H263.818V110.848H269.766V154.5ZM310.4 154.5H304.365L301.055 143.338H284.912L281.719 154.5H276.006L289.395 110.848H297.334L310.4 154.5ZM299.824 139.119L296.133 126.023L293.086 115.301C291.953 119.344 290.957 122.82 290.098 125.73L286.172 139.119H299.824ZM346.904 122.859C346.904 126.59 346.201 129.363 344.795 131.18C343.389 132.977 341.426 134.08 338.906 134.49C342.656 135.252 344.883 137.635 345.586 141.639L347.842 154.5H341.484C341.328 153.602 341.143 152.303 340.928 150.604C340.732 148.885 340.547 147.439 340.371 146.268C340.195 145.076 339.961 143.816 339.668 142.488C339.375 141.16 338.984 140.047 338.496 139.148C338.027 138.25 337.461 137.586 336.797 137.156C335.742 136.707 334.014 136.482 331.611 136.482H322.559V154.5H316.641V110.848H329.971C331.377 110.848 332.568 110.867 333.545 110.906C334.541 110.926 335.586 110.984 336.68 111.082C337.773 111.18 338.691 111.316 339.434 111.492C340.176 111.668 340.928 111.902 341.689 112.195C342.471 112.488 343.105 112.85 343.594 113.279C344.102 113.709 344.58 114.227 345.029 114.832C345.479 115.418 345.83 116.102 346.084 116.883C346.338 117.645 346.533 118.523 346.67 119.52C346.826 120.516 346.904 121.629 346.904 122.859ZM341.045 125.174V121.102C341.045 120.359 341.025 119.783 340.986 119.373C340.967 118.943 340.898 118.494 340.781 118.025C340.664 117.537 340.479 117.176 340.225 116.941C339.99 116.688 339.668 116.443 339.258 116.209C338.867 115.955 338.35 115.779 337.705 115.682C337.08 115.584 336.338 115.506 335.479 115.447C334.639 115.369 333.623 115.33 332.432 115.33H322.559V131.824H332.783C334.287 131.824 335.527 131.746 336.504 131.59C337.48 131.434 338.271 131.219 338.877 130.945C339.502 130.652 339.971 130.223 340.283 129.656C340.596 129.07 340.801 128.455 340.898 127.811C340.996 127.146 341.045 126.268 341.045 125.174ZM387.92 128.836C387.92 131.512 387.9 133.719 387.861 135.457C387.842 137.176 387.754 138.943 387.598 140.76C387.441 142.557 387.275 143.982 387.1 145.037C386.924 146.092 386.592 147.176 386.104 148.289C385.635 149.383 385.166 150.203 384.697 150.75C384.248 151.277 383.555 151.824 382.617 152.391C381.68 152.957 380.762 153.338 379.863 153.533C378.965 153.729 377.744 153.924 376.201 154.119C374.678 154.314 373.174 154.432 371.689 154.471C370.225 154.49 368.359 154.5 366.094 154.5H355.488V110.848H370.605C373.066 110.848 375.146 110.955 376.846 111.17C378.545 111.365 380.059 111.746 381.387 112.312C382.734 112.859 383.809 113.553 384.609 114.393C385.41 115.232 386.064 116.355 386.572 117.762C387.1 119.148 387.451 120.711 387.627 122.449C387.822 124.188 387.92 126.316 387.92 128.836ZM382.031 128.924C382.031 127.127 382.021 125.838 382.002 125.057C382.002 124.256 381.934 123.26 381.797 122.068C381.68 120.877 381.504 120.066 381.27 119.637C381.055 119.188 380.703 118.621 380.215 117.938C379.727 117.254 379.15 116.824 378.486 116.648C377.842 116.453 376.982 116.219 375.908 115.945C374.854 115.652 373.672 115.486 372.363 115.447C371.055 115.389 369.463 115.359 367.588 115.359H361.436V150.018H368.467C370.146 150.018 371.455 150.008 372.393 149.988C373.33 149.949 374.346 149.861 375.439 149.725C376.533 149.588 377.334 149.412 377.842 149.197C378.369 148.963 378.936 148.611 379.541 148.143C380.146 147.654 380.566 147.107 380.801 146.502C381.035 145.877 381.27 145.066 381.504 144.07C381.738 143.055 381.885 141.941 381.943 140.73C382.002 139.52 382.031 138.055 382.031 136.336V128.924ZM423.105 110.848L409.893 139.324V154.5H403.975V139.324L391.143 110.848H397.617L407.139 133.201L416.836 110.848H423.105Z" fill="#002603"/>
<path d="M155 1.5H167.455V48.1231V51.6119H209.915V1.5H221.238V48.1231H248.979V1.5H262V86.5H248.979V54.7836H221.238V86.5H209.915V51.6119H167.455V67.3116V86.5H155V1.5Z" fill="#002603"/>
<path d="M200.857 1.5H188.402V42.7313H200.857V1.5Z" fill="#002603"/>
<path d="M200.857 60.4925H188.402V86.5H200.857V60.4925Z" fill="#002603"/>
<path d="M221.238 48.1231V1.5H209.915V51.6119M221.238 48.1231H248.979M221.238 48.1231V54.7836M248.979 48.1231V1.5H262V86.5H248.979V54.7836M248.979 48.1231V54.7836M221.238 54.7836V86.5H209.915V51.6119M221.238 54.7836H248.979M209.915 51.6119H167.455M167.455 51.6119V48.1231V1.5H155V86.5H167.455V67.3116V51.6119ZM188.402 1.5H200.857V42.7313H188.402V1.5ZM188.402 60.4925H200.857V86.5H188.402V60.4925Z" stroke="#002603" stroke-width="3"/>
</svg>
